<mxfile host="app.diagrams.net" modified="2024-03-20T21:35:57.706Z" agent="Mozilla/5.0 (Windows NT 10.0; Win64; x64) AppleWebKit/537.36 (KHTML, like Gecko) Chrome/121.0.0.0 Safari/537.36 OPR/107.0.0.0" version="24.0.7" etag="krrOLOA4YsO8o3ZmUWOB" type="github">
  <diagram name="PÃ¡gina-1" id="F3H4eCIwstWqKsg39-Rf">
    <mxGraphModel>
      <root>
        <mxCell id="0" />
        <mxCell id="1" parent="0" />
      </root>
    </mxGraphModel>
  </diagram>
</mxfile>
